<!DOCTYPE svg  PUBLIC '-//W3C//DTD SVG 1.1//EN'  'http://www.w3.org/Graphics/SVG/1.1/DTD/svg11.dtd'><svg height="64px" id="ICONS" style="enable-background:new 0 0 64 64;" version="1.1" viewBox="0 0 64 64" width="64px" xml:space="preserve" xmlns="http://www.w3.org/2000/svg" xmlns:xlink="http://www.w3.org/1999/xlink"><ellipse cx="30.914" cy="42.459" rx="2.996" ry="1.94" style="fill:none;stroke:#FF6D00;stroke-width:2;stroke-linecap:round;stroke-linejoin:round;stroke-miterlimit:10;"/><path d="  M31,18.443c11.075,0,25.221,11.479,25.221,17.461c0,5.981-15.521,11.641-25.221,11.641S5.779,41.886,5.779,35.904  C5.779,29.922,19.925,18.443,31,18.443z" style="fill:none;stroke:#FF6D00;stroke-width:2;stroke-linecap:round;stroke-linejoin:round;stroke-miterlimit:10;"/><path d="  M40.536,20.722c0,0,10.776-5.687,15.464-4.722c4.688,0.965-4,12.575-4,12.575" style="fill:none;stroke:#FF6D00;stroke-width:2;stroke-linecap:round;stroke-linejoin:round;stroke-miterlimit:10;"/><path d="  M21.464,20.722c0,0-10.776-5.687-15.464-4.722c-4.688,0.965,4,12.575,4,12.575" style="fill:none;stroke:#FF6D00;stroke-width:2;stroke-linecap:round;stroke-linejoin:round;stroke-miterlimit:10;"/><path d="  M34.771,36.206l6.155-5.045c0.937-0.768,2.214-0.974,3.345-0.539l6.349,2.441l-6.634,4.479c-0.818,0.552-1.837,0.718-2.788,0.453  L34.771,36.206z" style="fill:none;stroke:#FF6D00;stroke-width:2;stroke-linecap:round;stroke-linejoin:round;stroke-miterlimit:10;"/><path d="  M27.229,36.206l-6.155-5.045c-0.937-0.768-2.214-0.974-3.345-0.539l-6.349,2.441l6.634,4.479c0.818,0.552,1.837,0.718,2.788,0.453  L27.229,36.206z" style="fill:none;stroke:#FF6D00;stroke-width:2;stroke-linecap:round;stroke-linejoin:round;stroke-miterlimit:10;"/><line style="fill:none;stroke:#FF6D00;stroke-width:2;stroke-linecap:round;stroke-linejoin:round;stroke-miterlimit:10;" x1="42.696" x2="42.441" y1="30.422" y2="38.094"/><line style="fill:none;stroke:#FF6D00;stroke-width:2;stroke-linecap:round;stroke-linejoin:round;stroke-miterlimit:10;" x1="19.304" x2="19.559" y1="30.422" y2="38.094"/><polyline points="  40.465,42.459 53.15,45.971 58,49.751 " style="fill:none;stroke:#FF6D00;stroke-width:2;stroke-linecap:round;stroke-linejoin:round;stroke-miterlimit:10;"/><polyline points="  22.505,42.459 8.85,45.971 4,49.751 " style="fill:none;stroke:#FF6D00;stroke-width:2;stroke-linecap:round;stroke-linejoin:round;stroke-miterlimit:10;"/><polyline points="  36.82,44.399 48.461,49.751 51.047,52.88 " style="fill:none;stroke:#FF6D00;stroke-width:2;stroke-linecap:round;stroke-linejoin:round;stroke-miterlimit:10;"/><polyline points="  24.856,44.399 13.539,49.751 10.953,52.88 " style="fill:none;stroke:#FF6D00;stroke-width:2;stroke-linecap:round;stroke-linejoin:round;stroke-miterlimit:10;"/><path d="  M46.09,23.769c0,0,4.91-7.936,9.91-7.769" style="fill:none;stroke:#FF6D00;stroke-width:2;stroke-linecap:round;stroke-linejoin:round;stroke-miterlimit:10;"/><path d="  M15.91,23.769c0,0-4.91-7.936-9.91-7.769" style="fill:none;stroke:#FF6D00;stroke-width:2;stroke-linecap:round;stroke-linejoin:round;stroke-miterlimit:10;"/></svg>